<mxfile host="app.diagrams.net" agent="Mozilla/5.0 (Windows NT 10.0; Win64; x64) AppleWebKit/537.36 (KHTML, like Gecko) Chrome/136.0.0.0 Safari/537.36" version="27.0.6">
  <diagram id="system_logs" name="系统日志数据流程图">
    <mxGraphModel dx="1554" dy="935" grid="1" gridSize="10" guides="1" tooltips="1" connect="1" arrows="1" fold="1" page="1" pageScale="1" pageWidth="850" pageHeight="1100" math="0" shadow="0">
      <root>
        <mxCell id="0" />
        <mxCell id="1" parent="0" />
        <mxCell id="2" value="&lt;div&gt;&lt;br&gt;&lt;/div&gt;&lt;div&gt;&lt;br&gt;&lt;/div&gt;&lt;div&gt;&lt;br&gt;&lt;/div&gt;用户/&lt;div&gt;管理员&lt;/div&gt;" style="shape=actor;whiteSpace=wrap;html=1;" parent="1" vertex="1">
          <mxGeometry x="50" y="100" width="60" height="100" as="geometry" />
        </mxCell>
        <mxCell id="3" value="执行操作&lt;br&gt;（如登录、订单创建）" style="rounded=1;whiteSpace=wrap;html=1;" parent="1" vertex="1">
          <mxGeometry x="150" y="120" width="120" height="60" as="geometry" />
        </mxCell>
        <mxCell id="4" value="后端中间件&lt;br&gt;记录日志" style="rounded=1;whiteSpace=wrap;html=1;" parent="1" vertex="1">
          <mxGeometry x="300" y="120" width="120" height="60" as="geometry" />
        </mxCell>
        <mxCell id="5" value="插入 logs 表" style="rounded=1;whiteSpace=wrap;html=1;" parent="1" vertex="1">
          <mxGeometry x="450" y="120" width="120" height="60" as="geometry" />
        </mxCell>
        <mxCell id="6" value="数据库&lt;br&gt;（PostgreSQL/MySQL）" style="shape=cylinder;whiteSpace=wrap;html=1;" parent="1" vertex="1">
          <mxGeometry x="640" y="110" width="100" height="80" as="geometry" />
        </mxCell>
        <mxCell id="7" value="管理员查询日志&lt;br&gt;调用 /log/query API" style="rounded=1;whiteSpace=wrap;html=1;" parent="1" vertex="1">
          <mxGeometry x="300" y="220" width="120" height="60" as="geometry" />
        </mxCell>
        <mxCell id="8" value="后端查询 logs 表" style="rounded=1;whiteSpace=wrap;html=1;" parent="1" vertex="1">
          <mxGeometry x="450" y="220" width="120" height="60" as="geometry" />
        </mxCell>
        <mxCell id="9" value="返回日志数据" style="rounded=1;whiteSpace=wrap;html=1;" parent="1" vertex="1">
          <mxGeometry x="450" y="320" width="120" height="60" as="geometry" />
        </mxCell>
        <mxCell id="10" value="前端展示日志&lt;br&gt;（Vuetify 3 表格）" style="rounded=1;whiteSpace=wrap;html=1;" parent="1" vertex="1">
          <mxGeometry x="300" y="320" width="120" height="60" as="geometry" />
        </mxCell>
        <mxCell id="11" value="" style="edgeStyle=orthogonalEdgeStyle;rounded=0;html=1;jettySize=auto;orthogonalLoop=1;" parent="1" source="2" target="3" edge="1">
          <mxGeometry relative="1" as="geometry" />
        </mxCell>
        <mxCell id="12" value="" style="edgeStyle=orthogonalEdgeStyle;rounded=0;html=1;jettySize=auto;orthogonalLoop=1;" parent="1" source="3" target="4" edge="1">
          <mxGeometry relative="1" as="geometry" />
        </mxCell>
        <mxCell id="13" value="" style="edgeStyle=orthogonalEdgeStyle;rounded=0;html=1;jettySize=auto;orthogonalLoop=1;" parent="1" source="4" target="5" edge="1">
          <mxGeometry relative="1" as="geometry" />
        </mxCell>
        <mxCell id="14" value="" style="edgeStyle=orthogonalEdgeStyle;rounded=0;html=1;jettySize=auto;orthogonalLoop=1;" parent="1" source="5" target="6" edge="1">
          <mxGeometry relative="1" as="geometry" />
        </mxCell>
        <mxCell id="15" value="" style="edgeStyle=orthogonalEdgeStyle;rounded=0;html=1;jettySize=auto;orthogonalLoop=1;" parent="1" source="7" target="8" edge="1">
          <mxGeometry relative="1" as="geometry" />
        </mxCell>
        <mxCell id="16" value="" style="edgeStyle=orthogonalEdgeStyle;rounded=0;html=1;jettySize=auto;orthogonalLoop=1;" parent="1" source="8" target="6" edge="1">
          <mxGeometry relative="1" as="geometry">
            <Array as="points">
              <mxPoint x="680" y="250" />
            </Array>
          </mxGeometry>
        </mxCell>
        <mxCell id="17" value="" style="edgeStyle=orthogonalEdgeStyle;rounded=0;html=1;jettySize=auto;orthogonalLoop=1;" parent="1" source="6" target="9" edge="1">
          <mxGeometry relative="1" as="geometry">
            <Array as="points">
              <mxPoint x="700" y="350" />
            </Array>
          </mxGeometry>
        </mxCell>
        <mxCell id="18" value="" style="edgeStyle=orthogonalEdgeStyle;rounded=0;html=1;jettySize=auto;orthogonalLoop=1;" parent="1" source="9" target="10" edge="1">
          <mxGeometry relative="1" as="geometry" />
        </mxCell>
      </root>
    </mxGraphModel>
  </diagram>
</mxfile>
